<svg width="700" height="700" viewBox="0 0 700 700" fill="none" xmlns="http://www.w3.org/2000/svg">
<g clip-path="url(#clip0_2_2)">
<path d="M507.368 12.1518C507.368 12.1518 478.823 68.4673 474.982 75.9442C471.14 83.4211 471.347 85.4168 475.174 93.2591C479 101.101 590.712 320.545 590.712 320.545C594.745 328.753 596.858 339.321 596.858 349.89C596.858 360.459 594.745 371.211 590.712 379.236C590.712 379.236 482.266 593.043 477.094 603.064C471.539 613.998 471.539 617.118 476.518 626.956L507.368 687.825C515.612 704.058 529.027 704.058 537.257 687.825L693.868 379.432C698.079 371.407 700 360.656 700 350.087C700 339.518 697.887 328.767 693.868 320.742L537.257 12.3345C529.027 -4.08087 515.612 -4.08093 507.368 12.1518Z" fill="#F42033"/>
<path d="M279.368 12.1518C279.368 12.1518 250.823 68.4673 246.982 75.9442C243.14 83.4211 243.347 85.4168 247.174 93.2591C251 101.101 362.712 320.545 362.712 320.545C366.745 328.753 368.858 339.321 368.858 349.89C368.858 360.459 366.745 371.211 362.712 379.236C362.712 379.236 254.266 593.043 249.094 603.064C243.539 613.998 243.539 617.118 248.518 626.956L279.368 687.825C287.612 704.058 301.027 704.058 309.257 687.825L465.868 379.432C470.079 371.407 472 360.656 472 350.087C472 339.518 469.887 328.767 465.868 320.742L309.257 12.3345C301.027 -4.08087 287.612 -4.08093 279.368 12.1518Z" fill="#EB3747"/>
<path d="M51.3677 12.1518C51.3677 12.1518 22.8231 68.4673 18.9817 75.9442C15.1403 83.4211 15.347 85.4168 19.1737 93.2591C23.0003 101.101 134.712 320.545 134.712 320.545C138.745 328.753 140.858 339.321 140.858 349.89C140.858 360.459 138.745 371.211 134.712 379.236C134.712 379.236 26.2656 593.043 21.0944 603.064C15.5392 613.998 15.5391 617.118 20.5182 626.956L51.3677 687.825C59.612 704.058 73.0274 704.058 81.2569 687.825L237.868 379.432C242.079 371.407 244 360.656 244 350.087C244 339.518 241.887 328.767 237.868 320.742L81.2569 12.3345C73.0274 -4.08087 59.612 -4.08093 51.3677 12.1518Z" fill="#F05A68"/>
</g>
<defs>
<clipPath id="clip0_2_2">
<rect width="700" height="700" fill="white" transform="translate(0 700) rotate(-90)"/>
</clipPath>
</defs>
</svg>
