<svg width="1140" height="655" viewBox="0 0 1140 655" fill="none" xmlns="http://www.w3.org/2000/svg">
<g clip-path="url(#clip0_1_2)">
<path d="M246.827 581.008C279.546 581.008 306.07 554.484 306.07 521.765C306.07 489.046 279.546 462.521 246.827 462.521C214.108 462.521 187.583 489.046 187.583 521.765C187.583 554.484 214.108 581.008 246.827 581.008Z" fill="#3F3D56"/>
<path d="M256.46 572.338C289.179 572.338 315.703 545.814 315.703 513.095C315.703 480.376 289.179 453.852 256.46 453.852C223.741 453.852 197.217 480.376 197.217 513.095C197.217 545.814 223.741 572.338 256.46 572.338Z" fill="#F45B69"/>
<path d="M1037.17 447.543H304.171V449.543H1037.17V447.543Z" fill="#3F3D56"/>
<path d="M683.793 18.6522H423.623V13.2899H305.652V18.6522H44.4101C42.099 18.6522 39.8106 19.1074 37.6754 19.9918C35.5403 20.8762 33.6002 22.1725 31.9661 23.8067C30.3319 25.4408 29.0356 27.3809 28.1512 29.516C27.2668 31.6512 26.8116 33.9396 26.8116 36.2507V392.503C26.8116 397.17 28.6657 401.647 31.9661 404.947C35.2664 408.247 39.7427 410.101 44.4101 410.101H683.793C688.46 410.101 692.936 408.247 696.237 404.947C699.537 401.647 701.391 397.17 701.391 392.503V36.2507C701.391 33.9396 700.936 31.6512 700.052 29.516C699.167 27.3809 697.871 25.4408 696.237 23.8067C694.603 22.1725 692.663 20.8762 690.527 19.9918C688.392 19.1074 686.104 18.6522 683.793 18.6522Z" fill="#3F3D56"/>
<path d="M363.565 40.1015C367.119 40.1015 370 37.2205 370 33.6667C370 30.1129 367.119 27.2319 363.565 27.2319C360.011 27.2319 357.13 30.1129 357.13 33.6667C357.13 37.2205 360.011 40.1015 363.565 40.1015Z" fill="#073B4C"/>
<path d="M568.558 240.622H509.953V252.868H568.558V240.622Z" fill="#3F3D56"/>
<path d="M639.409 145.279H439.102V150.527H639.409V145.279Z" fill="#3F3D56"/>
<path d="M639.409 161.898H439.102V167.147H639.409V161.898Z" fill="#3F3D56"/>
<path d="M639.409 211.757H439.102V217.005H639.409V211.757Z" fill="#3F3D56"/>
<path d="M719.007 397.232H657.778V392.82C657.778 392.705 657.755 392.592 657.711 392.486C657.667 392.379 657.603 392.283 657.522 392.202C657.44 392.121 657.344 392.056 657.238 392.012C657.132 391.968 657.018 391.946 656.903 391.946H635.91C635.795 391.946 635.682 391.968 635.575 392.012C635.469 392.056 635.373 392.121 635.292 392.202C635.21 392.283 635.146 392.379 635.102 392.486C635.058 392.592 635.035 392.705 635.035 392.82V397.232H621.915V392.82C621.915 392.705 621.892 392.592 621.848 392.486C621.804 392.379 621.74 392.283 621.659 392.202C621.577 392.121 621.481 392.056 621.375 392.012C621.269 391.968 621.155 391.946 621.04 391.946H600.047C599.932 391.946 599.819 391.968 599.713 392.012C599.606 392.056 599.51 392.121 599.429 392.202C599.348 392.283 599.283 392.379 599.239 392.486C599.195 392.592 599.173 392.705 599.173 392.82V397.232H586.052V392.82C586.052 392.705 586.029 392.592 585.985 392.486C585.942 392.379 585.877 392.283 585.796 392.202C585.715 392.121 585.618 392.056 585.512 392.012C585.406 391.968 585.292 391.946 585.177 391.946H564.184C564.07 391.946 563.956 391.968 563.85 392.012C563.744 392.056 563.647 392.121 563.566 392.202C563.485 392.283 563.42 392.379 563.376 392.486C563.332 392.592 563.31 392.705 563.31 392.82V397.232H550.189V392.82C550.189 392.705 550.167 392.592 550.123 392.486C550.079 392.379 550.014 392.283 549.933 392.202C549.852 392.121 549.755 392.056 549.649 392.012C549.543 391.968 549.429 391.946 549.314 391.946H528.322C528.207 391.946 528.093 391.968 527.987 392.012C527.881 392.056 527.784 392.121 527.703 392.202C527.622 392.283 527.557 392.379 527.513 392.486C527.469 392.592 527.447 392.705 527.447 392.82V397.232H514.326V392.82C514.326 392.705 514.304 392.592 514.26 392.486C514.216 392.379 514.151 392.283 514.07 392.202C513.989 392.121 513.892 392.056 513.786 392.012C513.68 391.968 513.566 391.946 513.452 391.946H492.459C492.344 391.946 492.23 391.968 492.124 392.012C492.018 392.056 491.921 392.121 491.84 392.202C491.759 392.283 491.694 392.379 491.651 392.486C491.607 392.592 491.584 392.705 491.584 392.82V397.232H478.463V392.82C478.463 392.705 478.441 392.592 478.397 392.486C478.353 392.379 478.288 392.283 478.207 392.202C478.126 392.121 478.03 392.056 477.923 392.012C477.817 391.968 477.704 391.946 477.589 391.946H456.596C456.481 391.946 456.367 391.968 456.261 392.012C456.155 392.056 456.058 392.121 455.977 392.202C455.896 392.283 455.832 392.379 455.788 392.486C455.744 392.592 455.721 392.705 455.721 392.82V397.232H442.6V392.82C442.6 392.705 442.578 392.592 442.534 392.486C442.49 392.379 442.426 392.283 442.344 392.202C442.263 392.121 442.167 392.056 442.06 392.012C441.954 391.968 441.841 391.946 441.726 391.946H277.281C277.166 391.946 277.053 391.968 276.947 392.012C276.84 392.056 276.744 392.121 276.663 392.202C276.582 392.283 276.517 392.379 276.473 392.486C276.429 392.592 276.407 392.705 276.407 392.82V397.232H263.286V392.82C263.286 392.705 263.263 392.592 263.219 392.486C263.176 392.379 263.111 392.283 263.03 392.202C262.949 392.121 262.852 392.056 262.746 392.012C262.64 391.968 262.526 391.946 262.411 391.946H241.418C241.304 391.946 241.19 391.968 241.084 392.012C240.978 392.056 240.881 392.121 240.8 392.202C240.719 392.283 240.654 392.379 240.61 392.486C240.566 392.592 240.544 392.705 240.544 392.82V397.232H227.423V392.82C227.423 392.705 227.401 392.592 227.357 392.486C227.313 392.379 227.248 392.283 227.167 392.202C227.086 392.121 226.989 392.056 226.883 392.012C226.777 391.968 226.663 391.946 226.548 391.946H205.556C205.441 391.946 205.327 391.968 205.221 392.012C205.115 392.056 205.018 392.121 204.937 392.202C204.856 392.283 204.791 392.379 204.747 392.486C204.703 392.592 204.681 392.705 204.681 392.82V397.232H191.56V392.82C191.56 392.705 191.538 392.592 191.494 392.486C191.45 392.379 191.385 392.283 191.304 392.202C191.223 392.121 191.126 392.056 191.02 392.012C190.914 391.968 190.8 391.946 190.686 391.946H169.693C169.578 391.946 169.464 391.968 169.358 392.012C169.252 392.056 169.155 392.121 169.074 392.202C168.993 392.283 168.928 392.379 168.885 392.486C168.841 392.592 168.818 392.705 168.818 392.82V397.232H155.697V392.82C155.697 392.705 155.675 392.592 155.631 392.486C155.587 392.379 155.522 392.283 155.441 392.202C155.36 392.121 155.264 392.056 155.157 392.012C155.051 391.968 154.938 391.946 154.823 391.946H133.83C133.715 391.946 133.601 391.968 133.495 392.012C133.389 392.056 133.292 392.121 133.211 392.202C133.13 392.283 133.066 392.379 133.022 392.486C132.978 392.592 132.955 392.705 132.955 392.82V397.232H119.835V392.82C119.835 392.705 119.812 392.592 119.768 392.486C119.724 392.379 119.66 392.283 119.578 392.202C119.497 392.121 119.401 392.056 119.295 392.012C119.188 391.968 119.075 391.946 118.96 391.946H97.9669C97.852 391.946 97.7383 391.968 97.6322 392.012C97.526 392.056 97.4296 392.121 97.3484 392.202C97.2672 392.283 97.2027 392.379 97.1588 392.486C97.1148 392.592 97.0922 392.705 97.0922 392.82V397.232H83.9716V392.82C83.9716 392.705 83.949 392.592 83.9051 392.486C83.8611 392.379 83.7967 392.283 83.7154 392.202C83.6342 392.121 83.5378 392.056 83.4317 392.012C83.3255 391.968 83.2118 391.946 83.0969 391.946H62.104C61.9892 391.946 61.8754 391.968 61.7693 392.012C61.6632 392.056 61.5667 392.121 61.4855 392.202C61.4043 392.283 61.3398 392.379 61.2959 392.486C61.2519 392.592 61.2293 392.705 61.2293 392.82V397.232H20.9929C15.4252 397.232 10.0856 399.444 6.14869 403.381C2.21175 407.317 5.30432e-06 412.657 0 418.225V427.717C1.5913e-05 433.285 2.21177 438.625 6.1487 442.561C10.0856 446.498 15.4253 448.71 20.9929 448.71H719.007C724.575 448.71 729.914 446.498 733.851 442.561C737.788 438.625 740 433.285 740 427.717V418.225C740 412.657 737.788 407.317 733.851 403.381C729.914 399.444 724.575 397.232 719.007 397.232Z" fill="#3F3D56"/>
<path d="M163.171 354.543C148.14 354.543 133.446 350.086 120.948 341.735C108.45 333.384 98.7088 321.514 92.9565 307.627C87.2043 293.74 85.6992 278.459 88.6317 263.716C91.5642 248.974 98.8024 235.432 109.431 224.803C120.06 214.174 133.602 206.936 148.344 204.004C163.087 201.071 178.368 202.576 192.255 208.328C206.142 214.081 218.012 223.822 226.363 236.32C234.714 248.818 239.171 263.512 239.171 278.543C239.149 298.693 231.134 318.01 216.886 332.258C202.638 346.506 183.321 354.52 163.171 354.543ZM163.171 204.543C148.536 204.543 134.228 208.883 122.059 217.014C109.89 225.146 100.405 236.703 94.8043 250.225C89.2034 263.746 87.7379 278.625 90.5932 292.98C93.4486 307.335 100.496 320.52 110.845 330.869C121.195 341.218 134.38 348.266 148.735 351.121C163.089 353.977 177.968 352.511 191.49 346.91C205.012 341.309 216.569 331.825 224.7 319.655C232.831 307.486 237.171 293.179 237.171 278.543C237.149 258.924 229.346 240.115 215.473 226.242C201.6 212.369 182.791 204.565 163.171 204.543Z" fill="#3F3D56"/>
<path d="M841.171 32.5432H586.171V34.5432H841.171V32.5432Z" fill="#3F3D56"/>
<path d="M1139.17 560.543H406.171V562.543H1139.17V560.543Z" fill="#3F3D56"/>
<path d="M447.671 652.543H192.672V654.543H447.671V652.543Z" fill="#3F3D56"/>
<path d="M499 550H471V578H499V550Z" fill="#F45B69"/>
<path d="M516 562H482V528H516V562ZM483.478 560.522H514.522V529.478H483.478V560.522Z" fill="#3F3D56"/>
<path d="M824 22H796V50H824V22Z" fill="#F45B69"/>
<path d="M841 34H807V0H841V34ZM808.478 32.5217H839.522V1.47826H808.478V32.5217Z" fill="#3F3D56"/>
<path d="M1106 550H1078V578H1106V550Z" fill="#F45B69"/>
<path d="M1123 562H1089V528H1123V562ZM1090.48 560.522H1121.52V529.478H1090.48V560.522Z" fill="#3F3D56"/>
<path d="M1057.17 231.958H1054.79V166.797C1054.79 161.844 1053.82 156.94 1051.92 152.364C1050.03 147.788 1047.25 143.631 1043.75 140.129C1040.24 136.627 1036.09 133.849 1031.51 131.954C1026.94 130.058 1022.03 129.083 1017.08 129.083H879.025C874.073 129.083 869.169 130.058 864.593 131.954C860.017 133.849 855.86 136.627 852.358 140.129C848.856 143.631 846.078 147.788 844.182 152.364C842.287 156.94 841.312 161.844 841.312 166.797V524.278C841.312 529.231 842.287 534.135 844.182 538.71C846.078 543.286 848.856 547.444 852.358 550.946C855.86 554.448 860.017 557.226 864.593 559.121C869.169 561.016 874.073 561.992 879.025 561.992H1017.08C1022.03 561.992 1026.94 561.016 1031.51 559.121C1036.09 557.226 1040.24 554.448 1043.75 550.946C1047.25 547.444 1050.03 543.286 1051.92 538.71C1053.82 534.135 1054.79 529.231 1054.79 524.278V278.341H1057.17V231.958Z" fill="#3F3D56"/>
<path d="M1046.76 169.013V525.973C1046.76 533.443 1043.8 540.607 1038.52 545.89C1033.23 551.173 1026.07 554.142 1018.6 554.143H879.881C872.412 554.142 865.248 551.173 859.967 545.89C854.686 540.607 851.72 533.443 851.721 525.973V169.013C851.722 161.545 854.689 154.383 859.97 149.102C865.251 143.821 872.413 140.854 879.881 140.853H896.711C895.883 142.885 895.567 145.089 895.792 147.271C896.016 149.454 896.773 151.548 897.997 153.368C899.221 155.189 900.874 156.681 902.811 157.712C904.747 158.744 906.907 159.283 909.101 159.283H988.191C990.385 159.283 992.546 158.744 994.482 157.713C996.419 156.681 998.072 155.189 999.296 153.369C1000.52 151.548 1001.28 149.454 1001.5 147.271C1001.73 145.089 1001.41 142.885 1000.58 140.853H1018.6C1026.07 140.854 1033.23 143.821 1038.51 149.102C1043.79 154.383 1046.76 161.545 1046.76 169.013Z" fill="#BBBBBB"/>
<path d="M969.903 376.218H928.58V388.464H969.903V376.218Z" fill="#F45B69"/>
<path d="M1019.86 280.875H878.621V286.123H1019.86V280.875Z" fill="#F45B69"/>
<path d="M1019.86 297.494H878.621V302.743H1019.86V297.494Z" fill="#F45B69"/>
<path d="M1019.86 314.114H878.621V319.362H1019.86V314.114Z" fill="#F45B69"/>
<path d="M1019.86 330.733H878.621V335.981H1019.86V330.733Z" fill="#F45B69"/>
<path d="M1019.86 347.352H878.621V352.601H1019.86V347.352Z" fill="#F45B69"/>
<path d="M954.175 211.179H929.684V235.67H954.175V211.179Z" fill="#F45B69"/>
<path d="M939.059 217.303V247.043H968.799V217.303H939.059ZM967.509 245.753H940.349V218.593H967.509V245.753Z" fill="#F45B69"/>
<path opacity="0.1" d="M1046.76 487.853V525.973C1046.76 533.443 1043.8 540.607 1038.52 545.89C1033.23 551.173 1026.07 554.142 1018.6 554.143H879.881C872.412 554.142 865.248 551.173 859.967 545.89C854.686 540.607 851.72 533.443 851.721 525.973V333.763L968.591 426.093L970.591 427.673L992.331 444.843L994.361 446.453L1046.76 487.853Z" fill="black"/>
<path d="M585.868 605.736C610.095 605.736 629.736 586.095 629.736 561.868C629.736 537.64 610.095 518 585.868 518C561.64 518 542 537.64 542 561.868C542 586.095 561.64 605.736 585.868 605.736Z" fill="#3F3D56"/>
<path d="M320.171 654.543C302.964 654.543 286.144 649.441 271.837 639.881C257.53 630.321 246.379 616.734 239.794 600.837C233.209 584.94 231.486 567.447 234.843 550.57C238.2 533.694 246.486 518.192 258.653 506.025C270.82 493.858 286.322 485.572 303.199 482.215C320.075 478.858 337.568 480.581 353.465 487.166C369.362 493.751 382.95 504.902 392.509 519.209C402.069 533.516 407.171 550.336 407.171 567.543C407.145 590.609 397.971 612.723 381.661 629.033C365.351 645.343 343.237 654.517 320.171 654.543ZM320.171 482.543C303.36 482.543 286.926 487.528 272.948 496.868C258.97 506.208 248.075 519.483 241.642 535.015C235.208 550.547 233.525 567.638 236.805 584.126C240.084 600.614 248.18 615.76 260.067 627.647C271.955 639.535 287.1 647.63 303.589 650.91C320.077 654.19 337.168 652.506 352.699 646.073C368.231 639.64 381.506 628.745 390.846 614.767C400.186 600.789 405.171 584.355 405.171 567.543C405.146 545.008 396.182 523.402 380.247 507.467C364.312 491.532 342.707 482.569 320.171 482.543Z" fill="#3F3D56"/>
<path d="M950.171 532.543C939.293 532.543 928.66 529.318 919.615 523.274C910.57 517.231 903.521 508.641 899.358 498.591C895.195 488.541 894.106 477.482 896.228 466.813C898.35 456.144 903.589 446.344 911.281 438.652C918.972 430.96 928.772 425.722 939.441 423.6C950.11 421.478 961.169 422.567 971.219 426.73C981.269 430.893 989.859 437.942 995.902 446.987C1001.95 456.032 1005.17 466.665 1005.17 477.543C1005.15 492.125 999.355 506.105 989.044 516.416C978.733 526.727 964.753 532.527 950.171 532.543ZM950.171 424.543C939.689 424.543 929.442 427.652 920.726 433.475C912.01 439.299 905.217 447.577 901.206 457.261C897.194 466.945 896.145 477.602 898.19 487.883C900.235 498.164 905.283 507.608 912.695 515.02C920.107 522.432 929.551 527.48 939.832 529.525C950.113 531.57 960.769 530.52 970.454 526.509C980.138 522.497 988.416 515.704 994.239 506.988C1000.06 498.273 1003.17 488.026 1003.17 477.543C1003.16 463.492 997.567 450.02 987.631 440.084C977.695 430.148 964.223 424.559 950.171 424.543Z" fill="#F45B69"/>
<path d="M40 46.6748V375.343C40.0051 377.638 41.1692 379.838 43.2373 381.46C45.3054 383.083 48.1089 383.996 51.0336 384H676.966C679.891 383.996 682.695 383.083 684.763 381.46C686.831 379.838 687.995 377.638 688 375.343V46.6748C688 44.3773 686.838 42.1736 684.769 40.5474C682.701 38.9211 679.895 38.005 676.966 38H51.0336C48.1053 38.005 45.2991 38.9212 43.2306 40.5474C41.1621 42.1737 40.0003 44.3773 40 46.6748Z" fill="#BBBBBB"/>
<path d="M656.5 65H379C376.616 65.003 374.33 65.9509 372.643 67.6359C370.956 69.3209 370.006 71.6057 370 73.99V261.25C370.002 263.636 370.951 265.924 372.638 267.612C374.326 269.299 376.614 270.248 379 270.25H656.5C658.886 270.248 661.174 269.299 662.862 267.612C664.549 265.924 665.498 263.636 665.5 261.25V73.99C665.494 71.6057 664.544 69.3209 662.857 67.6359C661.17 65.9509 658.884 65.003 656.5 65Z" fill="#F45B69"/>
<path d="M654.68 71H381.81C380.533 71.0028 379.31 71.5118 378.408 72.4154C377.507 73.319 377 74.5434 377 75.82V258.44C377.002 259.715 377.51 260.937 378.411 261.839C379.313 262.74 380.535 263.248 381.81 263.25H654.68C655.955 263.248 657.177 262.74 658.079 261.839C658.98 260.937 659.488 259.715 659.49 258.44V75.82C659.49 74.5434 658.983 73.319 658.082 72.4154C657.18 71.5118 655.957 71.0028 654.68 71Z" fill="#3F3D56"/>
<path d="M654.68 71H381.81C380.533 71.0028 379.31 71.5118 378.408 72.4154C377.507 73.319 377 74.5434 377 75.82V258.44C377.002 259.715 377.51 260.937 378.411 261.839C379.313 262.74 380.535 263.248 381.81 263.25H654.68C655.955 263.248 657.177 262.74 658.079 261.839C658.98 260.937 659.488 259.715 659.49 258.44V75.82C659.49 74.5434 658.983 73.319 658.082 72.4154C657.18 71.5118 655.957 71.0028 654.68 71Z" fill="#3F3D56"/>
<path d="M647.317 108.381H391.993C391.728 108.375 391.475 108.266 391.29 108.076C391.104 107.886 391 107.631 391 107.366C391 107.1 391.104 106.845 391.29 106.655C391.475 106.466 391.728 106.356 391.993 106.35H647.317C647.582 106.356 647.835 106.466 648.02 106.655C648.206 106.845 648.31 107.1 648.31 107.366C648.31 107.631 648.206 107.886 648.02 108.076C647.835 108.266 647.582 108.375 647.317 108.381Z" fill="#D7CEDB"/>
<path d="M409.373 101.166C412.66 101.166 415.324 98.4426 415.324 95.083C415.324 91.7235 412.66 89 409.373 89C406.087 89 403.423 91.7235 403.423 95.083C403.423 98.4426 406.087 101.166 409.373 101.166Z" fill="#D7CEDB"/>
<path d="M429.929 101.166C433.216 101.166 435.88 98.4426 435.88 95.083C435.88 91.7235 433.216 89 429.929 89C426.643 89 423.979 91.7235 423.979 95.083C423.979 98.4426 426.643 101.166 429.929 101.166Z" fill="#D7CEDB"/>
<path d="M450.486 101.166C453.772 101.166 456.436 98.4426 456.436 95.083C456.436 91.7235 453.772 89 450.486 89C447.199 89 444.535 91.7235 444.535 95.083C444.535 98.4426 447.199 101.166 450.486 101.166Z" fill="#D7CEDB"/>
<path d="M634.938 90.5042H620.339C620.05 90.5109 619.775 90.6303 619.574 90.8368C619.372 91.0433 619.259 91.3205 619.259 91.6092C619.259 91.8979 619.372 92.1751 619.574 92.3816C619.775 92.5881 620.05 92.7075 620.339 92.7142H634.938C635.229 92.7101 635.506 92.5919 635.71 92.3851C635.914 92.1783 636.028 91.8996 636.028 91.6092C636.028 91.3188 635.914 91.0401 635.71 90.8333C635.506 90.6265 635.229 90.5083 634.938 90.5042Z" fill="#D7CEDB"/>
<path d="M634.939 94.6542H620.339C620.05 94.6606 619.775 94.7798 619.573 94.9864C619.371 95.1929 619.258 95.4703 619.258 95.7592C619.258 96.0481 619.371 96.3255 619.573 96.5321C619.775 96.7386 620.05 96.8578 620.339 96.8642H634.939C635.229 96.8607 635.507 96.7428 635.711 96.5359C635.916 96.3291 636.03 96.05 636.03 95.7592C636.03 95.4684 635.916 95.1894 635.711 94.9825C635.507 94.7757 635.229 94.6577 634.939 94.6542Z" fill="#D7CEDB"/>
<path d="M634.938 98.8042H620.339C620.05 98.8109 619.775 98.9303 619.574 99.1368C619.372 99.3433 619.259 99.6205 619.259 99.9092C619.259 100.198 619.372 100.475 619.574 100.682C619.775 100.888 620.05 101.007 620.339 101.014H634.938C635.229 101.01 635.506 100.892 635.71 100.685C635.914 100.478 636.028 100.2 636.028 99.9092C636.028 99.6188 635.914 99.3401 635.71 99.1333C635.506 98.9265 635.229 98.8083 634.938 98.8042Z" fill="#D7CEDB"/>
<path d="M414.009 131.978H408.763C407.172 131.978 405.883 133.267 405.883 134.857C405.883 136.448 407.172 137.737 408.763 137.737H414.009C415.599 137.737 416.889 136.448 416.889 134.857C416.889 133.267 415.599 131.978 414.009 131.978Z" fill="#E6E6E6"/>
<path d="M474.009 131.978H468.763C467.172 131.978 465.883 133.267 465.883 134.857C465.883 136.448 467.172 137.737 468.763 137.737H474.009C475.599 137.737 476.889 136.448 476.889 134.857C476.889 133.267 475.599 131.978 474.009 131.978Z" fill="#E6E6E6"/>
<path d="M491.009 131.978H485.763C484.172 131.978 482.883 133.267 482.883 134.857C482.883 136.448 484.172 137.737 485.763 137.737H491.009C492.599 137.737 493.889 136.448 493.889 134.857C493.889 133.267 492.599 131.978 491.009 131.978Z" fill="#E6E6E6"/>
<path d="M457.689 131.497H425.083C423.492 131.497 422.203 132.787 422.203 134.377C422.203 135.968 423.492 137.257 425.083 137.257H457.689C459.279 137.257 460.569 135.968 460.569 134.377C460.569 132.787 459.279 131.497 457.689 131.497Z" fill="#E6E6E6"/>
<path d="M537.689 131.497H505.083C503.492 131.497 502.203 132.787 502.203 134.377C502.203 135.968 503.492 137.257 505.083 137.257H537.689C539.279 137.257 540.569 135.968 540.569 134.377C540.569 132.787 539.279 131.497 537.689 131.497Z" fill="#E6E6E6"/>
<path d="M430.009 144.978H424.763C423.172 144.978 421.883 146.267 421.883 147.857C421.883 149.448 423.172 150.737 424.763 150.737H430.009C431.599 150.737 432.889 149.448 432.889 147.857C432.889 146.267 431.599 144.978 430.009 144.978Z" fill="#E6E6E6"/>
<path d="M490.009 144.978H484.763C483.172 144.978 481.883 146.267 481.883 147.857C481.883 149.448 483.172 150.737 484.763 150.737H490.009C491.599 150.737 492.889 149.448 492.889 147.857C492.889 146.267 491.599 144.978 490.009 144.978Z" fill="#E6E6E6"/>
<path d="M507.009 144.978H501.763C500.172 144.978 498.883 146.267 498.883 147.857C498.883 149.448 500.172 150.737 501.763 150.737H507.009C508.599 150.737 509.889 149.448 509.889 147.857C509.889 146.267 508.599 144.978 507.009 144.978Z" fill="#E6E6E6"/>
<path d="M473.689 144.497H441.083C439.492 144.497 438.203 145.787 438.203 147.377C438.203 148.968 439.492 150.257 441.083 150.257H473.689C475.279 150.257 476.569 148.968 476.569 147.377C476.569 145.787 475.279 144.497 473.689 144.497Z" fill="#E6E6E6"/>
<path d="M553.689 144.497H521.083C519.492 144.497 518.203 145.787 518.203 147.377C518.203 148.968 519.492 150.257 521.083 150.257H553.689C555.279 150.257 556.569 148.968 556.569 147.377C556.569 145.787 555.279 144.497 553.689 144.497Z" fill="#E6E6E6"/>
<path d="M446.009 157.978H440.763C439.172 157.978 437.883 159.267 437.883 160.857C437.883 162.448 439.172 163.737 440.763 163.737H446.009C447.599 163.737 448.889 162.448 448.889 160.857C448.889 159.267 447.599 157.978 446.009 157.978Z" fill="#E6E6E6"/>
<path d="M506.009 157.978H500.763C499.172 157.978 497.883 159.267 497.883 160.857C497.883 162.448 499.172 163.737 500.763 163.737H506.009C507.599 163.737 508.889 162.448 508.889 160.857C508.889 159.267 507.599 157.978 506.009 157.978Z" fill="#E6E6E6"/>
<path d="M523.009 157.978H517.763C516.172 157.978 514.883 159.267 514.883 160.857C514.883 162.448 516.172 163.737 517.763 163.737H523.009C524.599 163.737 525.889 162.448 525.889 160.857C525.889 159.267 524.599 157.978 523.009 157.978Z" fill="#E6E6E6"/>
<path d="M489.689 157.497H457.083C455.492 157.497 454.203 158.787 454.203 160.377C454.203 161.968 455.492 163.257 457.083 163.257H489.689C491.279 163.257 492.569 161.968 492.569 160.377C492.569 158.787 491.279 157.497 489.689 157.497Z" fill="#E6E6E6"/>
<path d="M569.689 157.497H537.083C535.492 157.497 534.203 158.787 534.203 160.377C534.203 161.968 535.492 163.257 537.083 163.257H569.689C571.279 163.257 572.569 161.968 572.569 160.377C572.569 158.787 571.279 157.497 569.689 157.497Z" fill="#E6E6E6"/>
<path d="M462.009 170.978H456.763C455.172 170.978 453.883 172.267 453.883 173.857C453.883 175.448 455.172 176.737 456.763 176.737H462.009C463.599 176.737 464.889 175.448 464.889 173.857C464.889 172.267 463.599 170.978 462.009 170.978Z" fill="#E6E6E6"/>
<path d="M522.009 170.978H516.763C515.172 170.978 513.883 172.267 513.883 173.857C513.883 175.448 515.172 176.737 516.763 176.737H522.009C523.599 176.737 524.889 175.448 524.889 173.857C524.889 172.267 523.599 170.978 522.009 170.978Z" fill="#E6E6E6"/>
<path d="M539.009 170.978H533.763C532.172 170.978 530.883 172.267 530.883 173.857C530.883 175.448 532.172 176.737 533.763 176.737H539.009C540.599 176.737 541.889 175.448 541.889 173.857C541.889 172.267 540.599 170.978 539.009 170.978Z" fill="#E6E6E6"/>
<path d="M505.689 170.497H473.083C471.492 170.497 470.203 171.787 470.203 173.377C470.203 174.968 471.492 176.257 473.083 176.257H505.689C507.279 176.257 508.569 174.968 508.569 173.377C508.569 171.787 507.279 170.497 505.689 170.497Z" fill="#E6E6E6"/>
<path d="M474.009 222.671H468.763C467.172 222.671 465.883 223.96 465.883 225.551C465.883 227.142 467.172 228.431 468.763 228.431H474.009C475.599 228.431 476.889 227.142 476.889 225.551C476.889 223.96 475.599 222.671 474.009 222.671Z" fill="#E6E6E6"/>
<path d="M491.009 222.671H485.763C484.172 222.671 482.883 223.96 482.883 225.551C482.883 227.142 484.172 228.431 485.763 228.431H491.009C492.599 228.431 493.889 227.142 493.889 225.551C493.889 223.96 492.599 222.671 491.009 222.671Z" fill="#E6E6E6"/>
<path d="M537.689 223.151H505.083C503.492 223.151 502.203 224.441 502.203 226.031C502.203 227.622 503.492 228.911 505.083 228.911H537.689C539.279 228.911 540.569 227.622 540.569 226.031C540.569 224.441 539.279 223.151 537.689 223.151Z" fill="#E6E6E6"/>
<path d="M414.009 222.671H408.763C407.172 222.671 405.883 223.96 405.883 225.551C405.883 227.142 407.172 228.431 408.763 228.431H414.009C415.599 228.431 416.889 227.142 416.889 225.551C416.889 223.96 415.599 222.671 414.009 222.671Z" fill="#E6E6E6"/>
<path d="M457.689 223.151H425.083C423.492 223.151 422.203 224.441 422.203 226.031C422.203 227.622 423.492 228.911 425.083 228.911H457.689C459.279 228.911 460.569 227.622 460.569 226.031C460.569 224.441 459.279 223.151 457.689 223.151Z" fill="#E6E6E6"/>
<path d="M430.009 209.671H424.763C423.172 209.671 421.883 210.96 421.883 212.551C421.883 214.142 423.172 215.431 424.763 215.431H430.009C431.599 215.431 432.889 214.142 432.889 212.551C432.889 210.96 431.599 209.671 430.009 209.671Z" fill="#E6E6E6"/>
<path d="M490.009 209.671H484.763C483.172 209.671 481.883 210.96 481.883 212.551C481.883 214.142 483.172 215.431 484.763 215.431H490.009C491.599 215.431 492.889 214.142 492.889 212.551C492.889 210.96 491.599 209.671 490.009 209.671Z" fill="#E6E6E6"/>
<path d="M507.009 209.671H501.763C500.172 209.671 498.883 210.96 498.883 212.551C498.883 214.142 500.172 215.431 501.763 215.431H507.009C508.599 215.431 509.889 214.142 509.889 212.551C509.889 210.96 508.599 209.671 507.009 209.671Z" fill="#E6E6E6"/>
<path d="M473.689 210.151H441.083C439.492 210.151 438.203 211.441 438.203 213.031C438.203 214.622 439.492 215.911 441.083 215.911H473.689C475.279 215.911 476.569 214.622 476.569 213.031C476.569 211.441 475.279 210.151 473.689 210.151Z" fill="#E6E6E6"/>
<path d="M446.009 196.671H440.763C439.172 196.671 437.883 197.96 437.883 199.551C437.883 201.142 439.172 202.431 440.763 202.431H446.009C447.599 202.431 448.889 201.142 448.889 199.551C448.889 197.96 447.599 196.671 446.009 196.671Z" fill="#E6E6E6"/>
<path d="M506.009 196.671H500.763C499.172 196.671 497.883 197.96 497.883 199.551C497.883 201.142 499.172 202.431 500.763 202.431H506.009C507.599 202.431 508.889 201.142 508.889 199.551C508.889 197.96 507.599 196.671 506.009 196.671Z" fill="#E6E6E6"/>
<path d="M523.009 196.671H517.763C516.172 196.671 514.883 197.96 514.883 199.551C514.883 201.142 516.172 202.431 517.763 202.431H523.009C524.599 202.431 525.889 201.142 525.889 199.551C525.889 197.96 524.599 196.671 523.009 196.671Z" fill="#E6E6E6"/>
<path d="M489.689 197.151H457.083C455.492 197.151 454.203 198.441 454.203 200.031C454.203 201.622 455.492 202.911 457.083 202.911H489.689C491.279 202.911 492.569 201.622 492.569 200.031C492.569 198.441 491.279 197.151 489.689 197.151Z" fill="#E6E6E6"/>
<path d="M462.009 183.671H456.763C455.172 183.671 453.883 184.96 453.883 186.551C453.883 188.142 455.172 189.431 456.763 189.431H462.009C463.599 189.431 464.889 188.142 464.889 186.551C464.889 184.96 463.599 183.671 462.009 183.671Z" fill="#E6E6E6"/>
<path d="M522.009 183.671H516.763C515.172 183.671 513.883 184.96 513.883 186.551C513.883 188.142 515.172 189.431 516.763 189.431H522.009C523.599 189.431 524.889 188.142 524.889 186.551C524.889 184.96 523.599 183.671 522.009 183.671Z" fill="#E6E6E6"/>
<path d="M539.009 183.671H533.763C532.172 183.671 530.883 184.96 530.883 186.551C530.883 188.142 532.172 189.431 533.763 189.431H539.009C540.599 189.431 541.889 188.142 541.889 186.551C541.889 184.96 540.599 183.671 539.009 183.671Z" fill="#E6E6E6"/>
<path d="M505.689 184.151H473.083C471.492 184.151 470.203 185.441 470.203 187.031C470.203 188.622 471.492 189.911 473.083 189.911H505.689C507.279 189.911 508.569 188.622 508.569 187.031C508.569 185.441 507.279 184.151 505.689 184.151Z" fill="#E6E6E6"/>
<path d="M75.48 106.4C73.4533 106.4 71.6133 106.187 69.96 105.76C68.3333 105.333 66.8667 104.733 65.56 103.96C64.28 103.16 63.1067 102.227 62.04 101.16L65.76 96.2C67.44 97.88 69.12 99.0533 70.8 99.72C72.5067 100.36 74.2 100.68 75.88 100.68C76.6533 100.68 77.4 100.6 78.12 100.44C78.8667 100.253 79.4667 99.96 79.92 99.56C80.3733 99.16 80.6 98.64 80.6 98C80.6 97.5733 80.48 97.2133 80.24 96.92C80 96.6 79.6667 96.3333 79.24 96.12C78.8133 95.9067 78.3067 95.72 77.72 95.56C77.16 95.4 76.56 95.2667 75.92 95.16C75.3067 95.0267 74.6533 94.9067 73.96 94.8C72.28 94.5333 70.7867 94.16 69.48 93.68C68.2 93.2 67.12 92.6 66.24 91.88C65.36 91.16 64.68 90.32 64.2 89.36C63.7467 88.4 63.52 87.3067 63.52 86.08C63.52 84.7733 63.8267 83.5867 64.44 82.52C65.08 81.4267 65.9467 80.5067 67.04 79.76C68.1333 78.9867 69.4 78.4 70.84 78C72.28 77.5733 73.8 77.36 75.4 77.36C77.32 77.36 78.9867 77.5467 80.4 77.92C81.84 78.2933 83.0933 78.8267 84.16 79.52C85.2267 80.1867 86.12 80.9733 86.84 81.88L83.04 86.2C82.3733 85.5333 81.6267 84.9733 80.8 84.52C79.9733 84.0667 79.0933 83.72 78.16 83.48C77.2533 83.24 76.3333 83.12 75.4 83.12C74.4667 83.12 73.64 83.2267 72.92 83.44C72.2 83.6267 71.6267 83.9067 71.2 84.28C70.7733 84.6533 70.56 85.12 70.56 85.68C70.56 86.16 70.7333 86.5733 71.08 86.92C71.4267 87.24 71.88 87.52 72.44 87.76C73.0267 88 73.68 88.2 74.4 88.36C75.12 88.4933 75.84 88.6133 76.56 88.72C78.08 88.96 79.5067 89.28 80.84 89.68C82.1733 90.0533 83.3467 90.56 84.36 91.2C85.3733 91.8133 86.16 92.6133 86.72 93.6C87.3067 94.56 87.6 95.76 87.6 97.2C87.6 99.1467 87.0667 100.813 86 102.2C84.96 103.56 83.5333 104.6 81.72 105.32C79.9067 106.04 77.8267 106.4 75.48 106.4ZM95.7116 106V84.76H102.152V106H95.7116ZM98.9116 80.4C97.7116 80.4 96.7782 80.12 96.1116 79.56C95.4449 78.9733 95.1116 78.1467 95.1116 77.08C95.1116 76.12 95.4449 75.3333 96.1116 74.72C96.8049 74.1067 97.7382 73.8 98.9116 73.8C100.112 73.8 101.045 74.0933 101.712 74.68C102.378 75.24 102.712 76.04 102.712 77.08C102.712 78.0667 102.365 78.8667 101.672 79.48C101.005 80.0933 100.085 80.4 98.9116 80.4ZM120.581 106.44C118.501 106.44 116.674 105.973 115.101 105.04C113.528 104.08 112.301 102.773 111.421 101.12C110.541 99.44 110.101 97.5333 110.101 95.4C110.101 93.2667 110.554 91.3733 111.461 89.72C112.368 88.04 113.621 86.72 115.221 85.76C116.848 84.8 118.714 84.32 120.821 84.32C121.994 84.32 123.088 84.48 124.101 84.8C125.114 85.0933 126.021 85.4933 126.821 86C127.648 86.5067 128.301 87.0933 128.781 87.76C129.288 88.4 129.581 89.0533 129.661 89.72L128.141 90.08V76.4H134.581V106H128.621L128.261 100.84L129.541 101.16C129.461 101.827 129.168 102.48 128.661 103.12C128.154 103.733 127.488 104.293 126.661 104.8C125.861 105.28 124.941 105.68 123.901 106C122.861 106.293 121.754 106.44 120.581 106.44ZM122.381 101.04C123.581 101.04 124.621 100.8 125.501 100.32C126.408 99.84 127.101 99.1867 127.581 98.36C128.061 97.5067 128.301 96.52 128.301 95.4C128.301 94.2533 128.061 93.2667 127.581 92.44C127.101 91.5867 126.408 90.9333 125.501 90.48C124.621 90 123.581 89.76 122.381 89.76C121.181 89.76 120.141 90 119.261 90.48C118.381 90.9333 117.688 91.5867 117.181 92.44C116.701 93.2667 116.461 94.2533 116.461 95.4C116.461 96.52 116.701 97.5067 117.181 98.36C117.688 99.1867 118.381 99.84 119.261 100.32C120.141 100.8 121.181 101.04 122.381 101.04ZM156.04 106L168.24 78H174.28L186.4 106H179.44L172.96 90.84C172.72 90.2533 172.48 89.6667 172.24 89.08C172.027 88.4933 171.813 87.8933 171.6 87.28C171.387 86.6667 171.187 86.0667 171 85.48C170.813 84.8933 170.64 84.3333 170.48 83.8L171.84 83.76C171.68 84.4 171.493 85.0133 171.28 85.6C171.093 86.1867 170.893 86.7733 170.68 87.36C170.467 87.92 170.24 88.4933 170 89.08C169.76 89.6667 169.52 90.2667 169.28 90.88L162.8 106H156.04ZM161.76 100.8L163.96 95.68H178.36L180 100.8H161.76ZM192.462 106V76.4H198.742V89.72L197.222 90.24C197.489 89.1733 198.049 88.2 198.902 87.32C199.782 86.4133 200.849 85.6933 202.102 85.16C203.355 84.6 204.689 84.32 206.102 84.32C207.915 84.32 209.435 84.6933 210.662 85.44C211.915 86.16 212.849 87.1867 213.462 88.52C214.102 89.8267 214.422 91.36 214.422 93.12V106H207.982V94.12C207.982 93.16 207.809 92.36 207.462 91.72C207.142 91.0533 206.649 90.5467 205.982 90.2C205.342 89.8533 204.595 89.6933 203.742 89.72C203.049 89.72 202.395 89.84 201.782 90.08C201.195 90.2933 200.675 90.6133 200.222 91.04C199.795 91.44 199.462 91.9067 199.222 92.44C198.982 92.9733 198.862 93.5467 198.862 94.16V106H195.702C194.822 106 194.115 106 193.582 106C193.049 106 192.675 106 192.462 106ZM224.06 106V84.76H230.14L230.34 89.24L229.18 88.96C229.526 88.32 229.98 87.72 230.54 87.16C231.126 86.6 231.78 86.12 232.5 85.72C233.246 85.2933 234.046 84.96 234.9 84.72C235.753 84.48 236.673 84.36 237.66 84.36C238.806 84.36 239.86 84.5333 240.82 84.88C241.806 85.2267 242.646 85.8 243.34 86.6C244.033 87.3733 244.566 88.4133 244.94 89.72L243.62 89.56L243.94 88.92C244.366 88.3067 244.873 87.7333 245.46 87.2C246.073 86.64 246.766 86.16 247.54 85.76C248.313 85.3333 249.14 85 250.02 84.76C250.9 84.4933 251.806 84.36 252.74 84.36C254.686 84.36 256.273 84.7333 257.5 85.48C258.726 86.2 259.633 87.2267 260.22 88.56C260.806 89.8933 261.1 91.44 261.1 93.2V106H254.66V93.88C254.66 93.0267 254.526 92.2933 254.26 91.68C253.993 91.0667 253.58 90.6 253.02 90.28C252.486 89.9333 251.793 89.76 250.94 89.76C250.193 89.76 249.5 89.88 248.86 90.12C248.246 90.36 247.7 90.6933 247.22 91.12C246.766 91.52 246.406 92 246.14 92.56C245.9 93.0933 245.78 93.68 245.78 94.32V106H239.34V93.84C239.34 93.0133 239.193 92.2933 238.9 91.68C238.606 91.0667 238.153 90.6 237.54 90.28C236.926 89.9333 236.166 89.76 235.26 89.76C234.54 89.76 233.886 89.8933 233.3 90.16C232.74 90.4 232.246 90.7333 231.82 91.16C231.393 91.56 231.06 92 230.82 92.48C230.606 92.96 230.5 93.4533 230.5 93.96V106H224.06ZM281.262 106.4C278.676 106.4 276.409 105.933 274.462 105C272.542 104.04 271.049 102.747 269.982 101.12C268.916 99.4667 268.382 97.5867 268.382 95.48C268.382 93.8 268.689 92.28 269.302 90.92C269.916 89.56 270.769 88.3867 271.862 87.4C272.956 86.4133 274.236 85.6533 275.702 85.12C277.169 84.5867 278.756 84.32 280.462 84.32C282.116 84.32 283.636 84.5867 285.022 85.12C286.409 85.6267 287.609 86.36 288.622 87.32C289.662 88.28 290.462 89.4133 291.022 90.72C291.582 92.0267 291.836 93.4667 291.782 95.04L291.742 96.84H272.582L271.662 93.12H286.542L285.862 93.92V93.12C285.782 92.4533 285.489 91.8533 284.982 91.32C284.502 90.7867 283.876 90.3733 283.102 90.08C282.329 89.76 281.476 89.6 280.542 89.6C279.342 89.6 278.276 89.8 277.342 90.2C276.409 90.5733 275.676 91.16 275.142 91.96C274.636 92.76 274.382 93.7733 274.382 95C274.382 96.1733 274.689 97.2 275.302 98.08C275.942 98.96 276.836 99.6533 277.982 100.16C279.156 100.667 280.529 100.92 282.102 100.92C283.462 100.92 284.596 100.76 285.502 100.44C286.436 100.093 287.276 99.6667 288.022 99.16L290.902 103.32C290.022 103.987 289.049 104.56 287.982 105.04C286.942 105.493 285.849 105.827 284.702 106.04C283.582 106.28 282.436 106.4 281.262 106.4ZM307.808 106.44C305.728 106.44 303.901 105.973 302.328 105.04C300.754 104.08 299.528 102.773 298.648 101.12C297.768 99.44 297.327 97.5333 297.327 95.4C297.327 93.2667 297.781 91.3733 298.688 89.72C299.594 88.04 300.848 86.72 302.448 85.76C304.074 84.8 305.941 84.32 308.048 84.32C309.221 84.32 310.314 84.48 311.328 84.8C312.341 85.0933 313.248 85.4933 314.048 86C314.874 86.5067 315.528 87.0933 316.008 87.76C316.514 88.4 316.808 89.0533 316.888 89.72L315.368 90.08V76.4H321.808V106H315.848L315.488 100.84L316.768 101.16C316.688 101.827 316.394 102.48 315.888 103.12C315.381 103.733 314.714 104.293 313.888 104.8C313.088 105.28 312.168 105.68 311.128 106C310.088 106.293 308.981 106.44 307.808 106.44ZM309.608 101.04C310.808 101.04 311.848 100.8 312.728 100.32C313.634 99.84 314.328 99.1867 314.808 98.36C315.288 97.5067 315.528 96.52 315.528 95.4C315.528 94.2533 315.288 93.2667 314.808 92.44C314.328 91.5867 313.634 90.9333 312.728 90.48C311.848 90 310.808 89.76 309.608 89.76C308.408 89.76 307.368 90 306.488 90.48C305.608 90.9333 304.914 91.5867 304.408 92.44C303.928 93.2667 303.688 94.2533 303.688 95.4C303.688 96.52 303.928 97.5067 304.408 98.36C304.914 99.1867 305.608 99.84 306.488 100.32C307.368 100.8 308.408 101.04 309.608 101.04ZM75.48 156.4C73.4533 156.4 71.6133 156.187 69.96 155.76C68.3333 155.333 66.8667 154.733 65.56 153.96C64.28 153.16 63.1067 152.227 62.04 151.16L65.76 146.2C67.44 147.88 69.12 149.053 70.8 149.72C72.5067 150.36 74.2 150.68 75.88 150.68C76.6533 150.68 77.4 150.6 78.12 150.44C78.8667 150.253 79.4667 149.96 79.92 149.56C80.3733 149.16 80.6 148.64 80.6 148C80.6 147.573 80.48 147.213 80.24 146.92C80 146.6 79.6667 146.333 79.24 146.12C78.8133 145.907 78.3067 145.72 77.72 145.56C77.16 145.4 76.56 145.267 75.92 145.16C75.3067 145.027 74.6533 144.907 73.96 144.8C72.28 144.533 70.7867 144.16 69.48 143.68C68.2 143.2 67.12 142.6 66.24 141.88C65.36 141.16 64.68 140.32 64.2 139.36C63.7467 138.4 63.52 137.307 63.52 136.08C63.52 134.773 63.8267 133.587 64.44 132.52C65.08 131.427 65.9467 130.507 67.04 129.76C68.1333 128.987 69.4 128.4 70.84 128C72.28 127.573 73.8 127.36 75.4 127.36C77.32 127.36 78.9867 127.547 80.4 127.92C81.84 128.293 83.0933 128.827 84.16 129.52C85.2267 130.187 86.12 130.973 86.84 131.88L83.04 136.2C82.3733 135.533 81.6267 134.973 80.8 134.52C79.9733 134.067 79.0933 133.72 78.16 133.48C77.2533 133.24 76.3333 133.12 75.4 133.12C74.4667 133.12 73.64 133.227 72.92 133.44C72.2 133.627 71.6267 133.907 71.2 134.28C70.7733 134.653 70.56 135.12 70.56 135.68C70.56 136.16 70.7333 136.573 71.08 136.92C71.4267 137.24 71.88 137.52 72.44 137.76C73.0267 138 73.68 138.2 74.4 138.36C75.12 138.493 75.84 138.613 76.56 138.72C78.08 138.96 79.5067 139.28 80.84 139.68C82.1733 140.053 83.3467 140.56 84.36 141.2C85.3733 141.813 86.16 142.613 86.72 143.6C87.3067 144.56 87.6 145.76 87.6 147.2C87.6 149.147 87.0667 150.813 86 152.2C84.96 153.56 83.5333 154.6 81.72 155.32C79.9067 156.04 77.8267 156.4 75.48 156.4ZM103.552 156.36C101.445 156.36 99.6049 155.893 98.0316 154.96C96.4582 154.027 95.2182 152.733 94.3116 151.08C93.4316 149.4 92.9916 147.493 92.9916 145.36C92.9916 143.2 93.4449 141.293 94.3516 139.64C95.2582 137.987 96.5116 136.693 98.1116 135.76C99.7382 134.8 101.605 134.32 103.712 134.32C104.912 134.32 106.018 134.48 107.032 134.8C108.045 135.093 108.925 135.507 109.672 136.04C110.445 136.573 111.072 137.16 111.552 137.8C112.058 138.44 112.392 139.107 112.552 139.8H111.152V134.76H117.472V156H111.032V150.56L112.392 150.76C112.232 151.453 111.898 152.133 111.392 152.8C110.885 153.467 110.232 154.067 109.432 154.6C108.632 155.133 107.725 155.56 106.712 155.88C105.725 156.2 104.672 156.36 103.552 156.36ZM105.272 150.96C106.472 150.96 107.512 150.733 108.392 150.28C109.298 149.827 109.992 149.187 110.472 148.36C110.978 147.507 111.232 146.507 111.232 145.36C111.232 144.24 110.978 143.267 110.472 142.44C109.992 141.587 109.298 140.92 108.392 140.44C107.512 139.96 106.472 139.72 105.272 139.72C104.072 139.72 103.032 139.96 102.152 140.44C101.272 140.92 100.578 141.587 100.072 142.44C99.5916 143.267 99.3516 144.24 99.3516 145.36C99.3516 146.507 99.5916 147.507 100.072 148.36C100.578 149.187 101.272 149.827 102.152 150.28C103.032 150.733 104.072 150.96 105.272 150.96ZM127.345 156V126.4H133.625V139.72L132.105 140.24C132.371 139.173 132.931 138.2 133.785 137.32C134.665 136.413 135.731 135.693 136.985 135.16C138.238 134.6 139.571 134.32 140.985 134.32C142.798 134.32 144.318 134.693 145.545 135.44C146.798 136.16 147.731 137.187 148.345 138.52C148.985 139.827 149.305 141.36 149.305 143.12V156H142.865V144.12C142.865 143.16 142.691 142.36 142.345 141.72C142.025 141.053 141.531 140.547 140.865 140.2C140.225 139.853 139.478 139.693 138.625 139.72C137.931 139.72 137.278 139.84 136.665 140.08C136.078 140.293 135.558 140.613 135.105 141.04C134.678 141.44 134.345 141.907 134.105 142.44C133.865 142.973 133.745 143.547 133.745 144.16V156H130.585C129.705 156 128.998 156 128.465 156C127.931 156 127.558 156 127.345 156ZM159.103 156V134.76H165.183L165.463 142.08L163.943 141.32C164.289 140.013 164.889 138.84 165.743 137.8C166.623 136.733 167.623 135.893 168.743 135.28C169.889 134.64 171.103 134.32 172.383 134.32C173.076 134.32 173.729 134.387 174.343 134.52C174.983 134.653 175.529 134.827 175.983 135.04L174.223 142.04C173.823 141.747 173.276 141.52 172.583 141.36C171.916 141.2 171.236 141.12 170.543 141.12C169.769 141.12 169.063 141.253 168.423 141.52C167.809 141.76 167.289 142.107 166.863 142.56C166.436 142.987 166.103 143.48 165.863 144.04C165.649 144.6 165.543 145.2 165.543 145.84V156H159.103ZM190.427 156.36C188.32 156.36 186.48 155.893 184.907 154.96C183.333 154.027 182.093 152.733 181.187 151.08C180.307 149.4 179.867 147.493 179.867 145.36C179.867 143.2 180.32 141.293 181.227 139.64C182.133 137.987 183.387 136.693 184.987 135.76C186.613 134.8 188.48 134.32 190.587 134.32C191.787 134.32 192.893 134.48 193.907 134.8C194.92 135.093 195.8 135.507 196.547 136.04C197.32 136.573 197.947 137.16 198.427 137.8C198.933 138.44 199.267 139.107 199.427 139.8H198.027V134.76H204.347V156H197.907V150.56L199.267 150.76C199.107 151.453 198.773 152.133 198.267 152.8C197.76 153.467 197.107 154.067 196.307 154.6C195.507 155.133 194.6 155.56 193.587 155.88C192.6 156.2 191.547 156.36 190.427 156.36ZM192.147 150.96C193.347 150.96 194.387 150.733 195.267 150.28C196.173 149.827 196.867 149.187 197.347 148.36C197.853 147.507 198.107 146.507 198.107 145.36C198.107 144.24 197.853 143.267 197.347 142.44C196.867 141.587 196.173 140.92 195.267 140.44C194.387 139.96 193.347 139.72 192.147 139.72C190.947 139.72 189.907 139.96 189.027 140.44C188.147 140.92 187.453 141.587 186.947 142.44C186.467 143.267 186.227 144.24 186.227 145.36C186.227 146.507 186.467 147.507 186.947 148.36C187.453 149.187 188.147 149.827 189.027 150.28C189.907 150.733 190.947 150.96 192.147 150.96ZM224.86 156.4C222.38 156.4 220.18 155.92 218.26 154.96C216.34 154 214.833 152.693 213.74 151.04C212.646 149.387 212.1 147.493 212.1 145.36C212.1 143.227 212.646 141.333 213.74 139.68C214.833 138.027 216.34 136.72 218.26 135.76C220.18 134.8 222.38 134.32 224.86 134.32C227.313 134.32 229.486 134.8 231.38 135.76C233.3 136.72 234.806 138.027 235.9 139.68C236.993 141.333 237.54 143.227 237.54 145.36C237.54 147.493 236.993 149.387 235.9 151.04C234.806 152.693 233.3 154 231.38 154.96C229.486 155.92 227.313 156.4 224.86 156.4ZM224.86 150.88C226.006 150.88 227.046 150.64 227.98 150.16C228.94 149.68 229.686 149.027 230.22 148.2C230.78 147.373 231.046 146.427 231.02 145.36C231.046 144.293 230.78 143.333 230.22 142.48C229.686 141.627 228.94 140.973 227.98 140.52C227.046 140.04 226.006 139.8 224.86 139.8C223.686 139.8 222.606 140.04 221.62 140.52C220.66 141 219.913 141.653 219.38 142.48C218.846 143.307 218.58 144.267 218.58 145.36C218.58 146.427 218.846 147.373 219.38 148.2C219.913 149.027 220.66 149.68 221.62 150.16C222.606 150.64 223.686 150.88 224.86 150.88ZM253.39 156.44C251.683 156.44 250.203 156.067 248.95 155.32C247.723 154.573 246.776 153.493 246.11 152.08C245.443 150.64 245.11 148.92 245.11 146.92V134.76H251.51V145.88C251.51 146.973 251.656 147.893 251.95 148.64C252.27 149.387 252.763 149.96 253.43 150.36C254.096 150.733 254.91 150.92 255.87 150.92C256.563 150.92 257.203 150.813 257.79 150.6C258.376 150.36 258.896 150.04 259.35 149.64C259.803 149.213 260.15 148.733 260.39 148.2C260.656 147.64 260.79 147.013 260.79 146.32V134.76H267.19V156H261.19L260.91 151.64L262.07 151.16C261.776 152.093 261.216 152.96 260.39 153.76C259.563 154.56 258.55 155.213 257.35 155.72C256.176 156.2 254.856 156.44 253.39 156.44ZM277.469 156V134.76H283.909V156H277.469ZM280.669 130.4C279.469 130.4 278.536 130.12 277.869 129.56C277.203 128.973 276.869 128.147 276.869 127.08C276.869 126.12 277.203 125.333 277.869 124.72C278.563 124.107 279.496 123.8 280.669 123.8C281.869 123.8 282.803 124.093 283.469 124.68C284.136 125.24 284.469 126.04 284.469 127.08C284.469 128.067 284.123 128.867 283.429 129.48C282.763 130.093 281.843 130.4 280.669 130.4Z" fill="#F45B69"/>
<g clip-path="url(#clip1_1_2)">
<path d="M231.962 202.604C231.962 202.604 223.807 214.672 222.709 216.274C221.612 217.876 221.671 218.304 222.764 219.984C223.857 221.665 255.775 268.688 255.775 268.688C256.927 270.447 257.531 272.712 257.531 274.976C257.531 277.241 256.927 279.545 255.775 281.265C255.775 281.265 224.79 327.081 223.313 329.228C221.725 331.571 221.725 332.24 223.148 334.348L231.962 347.391C234.318 350.87 238.151 350.87 240.502 347.391L285.248 281.307C286.451 279.587 287 277.283 287 275.019C287 272.754 286.396 270.45 285.248 268.73L240.502 202.643C238.151 199.126 234.318 199.126 231.962 202.604Z" fill="#F42033"/>
<path d="M166.819 202.604C166.819 202.604 158.664 214.672 157.566 216.274C156.469 217.876 156.528 218.304 157.621 219.984C158.714 221.665 190.632 268.688 190.632 268.688C191.784 270.447 192.388 272.712 192.388 274.976C192.388 277.241 191.784 279.545 190.632 281.265C190.632 281.265 159.647 327.081 158.17 329.228C156.583 331.571 156.583 332.24 158.005 334.348L166.819 347.391C169.175 350.87 173.008 350.87 175.359 347.391L220.105 281.307C221.308 279.587 221.857 277.283 221.857 275.019C221.857 272.754 221.253 270.45 220.105 268.73L175.359 202.643C173.008 199.126 169.175 199.126 166.819 202.604Z" fill="#EB3747"/>
<path d="M101.677 202.604C101.677 202.604 93.5209 214.672 92.4234 216.274C91.3258 217.876 91.3849 218.304 92.4782 219.984C93.5715 221.665 125.489 268.688 125.489 268.688C126.641 270.447 127.245 272.712 127.245 274.976C127.245 277.241 126.641 279.545 125.489 281.265C125.489 281.265 94.5045 327.081 93.027 329.228C91.4398 331.571 91.4398 332.24 92.8624 334.348L101.677 347.391C104.032 350.87 107.865 350.87 110.216 347.391L154.962 281.307C156.166 279.587 156.714 277.283 156.714 275.019C156.714 272.754 156.111 270.45 154.962 268.73L110.216 202.643C107.865 199.126 104.032 199.126 101.677 202.604Z" fill="#F05A68"/>
</g>
<g clip-path="url(#clip2_1_2)">
<path d="M971.233 449.042C971.233 449.042 967.563 453.869 967.069 454.51C966.575 455.15 966.602 455.321 967.094 455.994C967.586 456.666 981.949 475.475 981.949 475.475C982.467 476.179 982.739 477.085 982.739 477.991C982.739 478.896 982.467 479.818 981.949 480.506C981.949 480.506 968.006 498.832 967.341 499.691C966.626 500.628 966.626 500.896 967.267 501.739L971.233 506.956C972.293 508.348 974.018 508.348 975.076 506.956L995.212 480.523C995.753 479.835 996 478.913 996 478.007C996 477.102 995.728 476.18 995.212 475.492L975.076 449.057C974.018 447.65 972.293 447.65 971.233 449.042Z" fill="#F42033"/>
<path d="M941.919 449.042C941.919 449.042 938.249 453.869 937.755 454.51C937.261 455.15 937.287 455.321 937.779 455.994C938.271 456.666 952.634 475.475 952.634 475.475C953.153 476.179 953.425 477.085 953.425 477.991C953.425 478.896 953.153 479.818 952.634 480.506C952.634 480.506 938.691 498.832 938.026 499.691C937.312 500.628 937.312 500.896 937.952 501.739L941.919 506.956C942.979 508.348 944.704 508.348 945.762 506.956L965.897 480.523C966.439 479.835 966.686 478.913 966.686 478.007C966.686 477.102 966.414 476.18 965.897 475.492L945.762 449.057C944.704 447.65 942.979 447.65 941.919 449.042Z" fill="#EB3747"/>
<path d="M912.604 449.042C912.604 449.042 908.934 453.869 908.441 454.51C907.947 455.15 907.973 455.321 908.465 455.994C908.957 456.666 923.32 475.475 923.32 475.475C923.839 476.179 924.11 477.085 924.11 477.991C924.11 478.896 923.839 479.818 923.32 480.506C923.32 480.506 909.377 498.832 908.712 499.691C907.998 500.628 907.998 500.896 908.638 501.739L912.604 506.956C913.664 508.348 915.389 508.348 916.447 506.956L936.583 480.523C937.124 479.835 937.371 478.913 937.371 478.007C937.371 477.102 937.1 476.18 936.583 475.492L916.447 449.057C915.389 447.65 913.664 447.65 912.604 449.042Z" fill="#F05A68"/>
</g>
</g>
<defs>
<clipPath id="clip0_1_2">
<rect width="1139.17" height="654.543" fill="white"/>
</clipPath>
<clipPath id="clip1_1_2">
<rect width="150" height="200" fill="white" transform="translate(87 350) rotate(-90)"/>
</clipPath>
<clipPath id="clip2_1_2">
<rect width="60" height="90" fill="white" transform="translate(906 508) rotate(-90)"/>
</clipPath>
</defs>
</svg>
